<?xml version="1.0" standalone="no"?>
<!DOCTYPE svg PUBLIC "-//W3C//DTD SVG 20010904//EN"
 "http://www.w3.org/TR/2001/REC-SVG-20010904/DTD/svg10.dtd">
<svg version="1.0" xmlns="http://www.w3.org/2000/svg"
 width="300.000000pt" height="300.000000pt" viewBox="0 0 300.000000 300.000000"
 preserveAspectRatio="xMidYMid meet">
<metadata>
Created by potrace 1.10, written by Peter Selinger 2001-2011
</metadata>
<g transform="translate(0.000000,300.000000) scale(0.100000,-0.100000)"
fill="#000000" stroke="none">
<path d="M1375 2967 c-22 -13 -157 -91 -299 -173 -142 -82 -277 -160 -300
-173 -23 -13 -56 -32 -73 -42 -150 -85 -423 -245 -446 -261 -15 -11 -41 -43
-57 -71 l-30 -52 0 -692 c0 -692 0 -692 22 -734 12 -23 35 -55 52 -72 17 -16
191 -122 386 -234 195 -112 453 -261 572 -329 180 -104 223 -125 250 -122 27
3 30 6 15 12 -10 5 -85 47 -165 94 -158 91 -194 112 -244 140 -315 180 -758
439 -775 455 -39 35 -56 21 232 188 l190 110 35 -43 c65 -81 195 -203 261
-246 81 -52 216 -107 312 -128 116 -24 292 -20 409 10 119 31 189 62 281 123
91 60 174 138 243 230 l55 73 -15 33 c-18 37 -11 32 -216 149 -122 70 -161 88
-182 84 -16 -3 -54 -32 -90 -69 -169 -171 -419 -177 -582 -14 -41 41 -47 51
-35 62 19 19 242 152 302 180 26 13 47 25 45 29 -3 5 103 68 230 136 18 10 39
23 46 29 7 6 47 26 87 44 82 35 348 187 392 224 25 20 84 56 197 121 19 11 91
52 160 91 69 39 129 70 135 68 5 -2 12 -17 15 -33 8 -41 6 -591 -2 -599 -4 -4
-17 0 -29 8 -11 9 -27 13 -34 11 -8 -3 -17 8 -25 30 -17 52 -56 77 -103 66
-48 -10 -63 -23 -71 -60 -4 -24 -12 -32 -36 -36 -16 -4 -35 -13 -41 -20 -15
-18 -33 -18 -49 1 -7 8 -20 15 -29 15 -22 0 -42 14 -45 32 -1 8 -10 27 -19 42
-16 24 -23 27 -70 24 -51 -3 -53 -4 -72 -46 -13 -29 -28 -45 -45 -49 -44 -10
-60 -32 -60 -83 0 -49 17 -75 54 -81 10 -2 24 -13 30 -24 38 -69 46 -75 96
-75 42 0 51 4 68 28 10 15 22 35 25 45 4 9 15 20 24 23 10 3 25 10 33 15 32
20 41 21 58 7 9 -9 29 -18 44 -22 19 -4 30 -16 38 -41 14 -42 35 -55 88 -55
43 0 61 15 82 68 9 23 19 32 36 32 12 0 26 5 29 11 4 5 12 8 18 6 9 -3 12 -81
14 -283 1 -282 -7 -384 -32 -384 -7 0 -15 -8 -17 -18 -9 -32 -61 -66 -350
-230 -18 -11 -105 -61 -193 -112 -420 -243 -633 -365 -660 -379 l-30 -16 33
-3 c27 -3 69 17 225 107 718 412 956 553 986 581 18 18 42 51 52 74 18 39 19
79 19 725 0 680 0 685 -21 729 -33 68 -72 99 -255 204 -93 53 -349 200 -569
327 -285 165 -408 231 -430 231 -28 -1 -28 -2 20 -26 27 -14 77 -42 110 -62
33 -19 80 -47 105 -61 25 -15 54 -32 65 -38 11 -7 47 -27 80 -46 84 -48 117
-67 220 -127 130 -76 154 -90 215 -123 30 -17 74 -43 97 -59 23 -15 61 -37 85
-48 93 -43 234 -143 224 -159 -4 -5 -102 -65 -219 -132 -116 -67 -483 -279
-815 -471 -332 -191 -606 -348 -610 -348 -10 0 -43 142 -47 200 -6 105 39 216
123 300 110 110 227 145 387 115 63 -12 124 -48 197 -114 67 -62 78 -69 78
-50 0 27 -107 122 -179 157 -73 36 -77 37 -190 37 -110 0 -120 -2 -184 -32
-93 -44 -169 -119 -215 -212 -36 -73 -37 -77 -37 -190 0 -110 2 -120 32 -184
44 -93 119 -169 212 -215 73 -36 77 -37 191 -37 114 0 118 1 191 37 71 35 157
110 185 161 9 16 18 13 100 -36 49 -29 135 -80 192 -112 56 -32 102 -60 102
-63 0 -2 -22 -35 -49 -71 -130 -175 -306 -292 -521 -347 -110 -28 -306 -26
-418 4 -219 59 -397 186 -522 373 -338 506 -75 1190 520 1351 115 31 326 31
441 0 199 -54 376 -174 496 -338 26 -35 49 -62 51 -59 18 18 -53 122 -133 196
-177 164 -388 248 -622 251 -222 2 -394 -53 -564 -183 -178 -136 -304 -333
-344 -540 -19 -102 -20 -278 -1 -374 19 -97 73 -233 98 -246 17 -9 18 -13 7
-24 -14 -13 -484 -285 -493 -285 -20 0 -25 156 -25 738 0 703 0 705 59 770 33
36 99 78 305 195 77 44 154 88 170 98 17 10 48 28 70 40 22 12 87 49 145 84
159 94 202 119 235 135 17 8 32 17 35 20 8 9 204 118 242 135 l33 14 -35 1
c-19 0 -53 -11 -75 -23z m915 -1367 l0 -50 50 0 50 0 0 -50 0 -50 -50 0 -50 0
0 -50 0 -50 -50 0 -50 0 0 50 0 50 -50 0 -50 0 0 50 0 50 50 0 50 0 0 50 0 50
50 0 50 0 0 -50z m370 0 l0 -50 50 0 50 0 0 -50 0 -50 -50 0 -50 0 0 -50 0
-50 -50 0 -50 0 0 50 0 50 -50 0 -50 0 0 50 0 50 50 0 50 0 0 50 0 50 50 0 50
0 0 -50z"/>
</g>
</svg>
